<svg width="163" height="66" viewBox="0 0 163 66" fill="none" xmlns="http://www.w3.org/2000/svg">
<rect x="2" y="2" width="159" height="62" rx="31" stroke="#D03A2B" stroke-width="4"/>
<rect x="6" y="6" width="151" height="54" rx="27" fill="#D03A2B"/>
<rect x="6" y="6" width="151" height="54" rx="27" stroke="white" stroke-width="4"/>
<path d="M33.232 41H28.72V24.92H33.232V30.896H36.472L40.384 24.92H45.784L40.216 32.816L45.664 41H40.264L36.52 35.288H33.232V41ZM50.3067 41H45.7947V24.92H50.3067V41ZM57.9638 41.24C53.7638 41.24 50.9078 38.864 50.9078 34.952C50.9078 31.016 53.7638 28.664 57.9638 28.664C62.1638 28.664 65.0198 31.016 65.0198 34.952C65.0198 38.864 62.1638 41.24 57.9638 41.24ZM57.9638 37.256C60.0038 37.256 60.5558 36.704 60.5558 34.952C60.5558 33.2 60.0038 32.624 57.9638 32.624C55.9238 32.624 55.3718 33.2 55.3718 34.952C55.3718 36.704 55.9238 37.256 57.9638 37.256ZM70.1358 41H65.6238V28.904H69.8478V32.576H70.0878C70.3518 30.56 71.6718 28.664 74.9118 28.664C78.1758 28.664 79.7118 30.632 79.7118 33.248V41H75.1998V34.904C75.1998 33.224 74.5758 32.696 72.6078 32.696C70.6158 32.696 70.1358 33.2 70.1358 34.76V41ZM89.6136 41H86.4456C83.4216 41 81.6216 39.536 81.6216 36.392V32.6H79.8456V28.904H81.6216V26.816H86.1336V28.904H89.6136V32.6H86.1336V35.744C86.1336 36.704 86.4216 36.944 87.4536 36.944H89.6136V41ZM96.9066 41.24C92.7066 41.24 89.8506 38.864 89.8506 34.952C89.8506 31.016 92.7066 28.664 96.9066 28.664C101.107 28.664 103.963 31.016 103.963 34.952C103.963 38.864 101.107 41.24 96.9066 41.24ZM96.9066 37.256C98.9466 37.256 99.4986 36.704 99.4986 34.952C99.4986 33.2 98.9466 32.624 96.9066 32.624C94.8666 32.624 94.3146 33.2 94.3146 34.952C94.3146 36.704 94.8666 37.256 96.9066 37.256ZM109.079 41H104.567V28.904H108.791V32.576H109.031C109.295 30.56 110.615 28.664 113.855 28.664C117.119 28.664 118.655 30.632 118.655 33.248V41H114.143V34.904C114.143 33.224 113.519 32.696 111.551 32.696C109.559 32.696 109.079 33.2 109.079 34.76V41ZM124.884 39.656C121.284 39.656 119.268 37.592 119.268 34.136C119.268 30.728 121.428 28.664 125.004 28.664C127.452 28.664 129.084 29.648 129.42 31.736H129.66V28.904H133.884V38.96C133.884 43.28 131.316 45.32 126.66 45.32C122.436 45.32 119.988 43.544 119.988 40.376H124.5C124.5 41.36 124.62 41.6 126.972 41.6C128.916 41.6 129.372 41.312 129.372 39.272V36.728H129.132C128.82 38.48 127.548 39.656 124.884 39.656ZM123.828 34.136C123.828 35.336 124.404 35.792 126.516 35.792C128.532 35.792 129.372 35.552 129.372 34.28V34.112C129.372 32.816 128.532 32.552 126.516 32.552C124.404 32.552 123.828 32.96 123.828 34.136Z" fill="white"/>
</svg>
